<?xml version="1.0" encoding="utf-8"?>
<svg xmlns="http://www.w3.org/2000/svg" style="margin: auto; display: block; shape-rendering: auto; background: none;" width="280" height="250" preserveAspectRatio="xMidYMid">
<style type="text/css">
  text {
    text-anchor: middle; font-size: 64px; opacity: 0;
  }
</style>
<g style="transform-origin: 140px 125px; transform: scale(0.8);">
<g transform="translate(140,125)">
  <g transform="translate(0,0)"><g class="path" style="opacity: 1; transform-origin: -124.28px -8.82899px; animation: 1s linear -0.21875s infinite normal forwards running fade-6839a8f9-8a0f-4a65-9871-cf163cdc5a58;"><path d="M51.92 0L51.92-46.32L36.96-12.64L29.44-12.64L14.40-46.32L14.40 0L7.20 0L7.20-56L17.84-56L33.36-20.56L48.64-56L59.52-56L59.52 0L51.92 0" fill="#88c3cf" stroke="none" stroke-width="none" transform="translate(-157.64003944396973,19.171000584363938)" style="fill: rgb(136, 195, 207);"></path></g><g class="path" style="opacity: 1; transform-origin: -66.04px -1.629px; animation: 1s linear -0.1875s infinite normal forwards running fade-6839a8f9-8a0f-4a65-9871-cf163cdc5a58;"><path d="M70.32-20.56L70.32-20.56L70.32-20.56Q70.32-25.20 71.76-29.24L71.76-29.24L71.76-29.24Q73.20-33.28 75.80-36.24L75.80-36.24L75.80-36.24Q78.40-39.20 82.04-40.88L82.04-40.88L82.04-40.88Q85.68-42.56 90-42.56L90-42.56L90-42.56Q93.60-42.56 96.52-41.32L96.52-41.32L96.52-41.32Q99.44-40.08 101.60-38.24L101.60-38.24L101.60-41.60L108.16-41.60L108.16-10.08L108.16-10.08Q108.16-7.04 109.64-6.12L109.64-6.12L109.64-6.12Q111.12-5.20 112.88-5.20L112.88-5.20L111.36 0.40L111.36 0.40Q103.68 0.40 102.08-5.84L102.08-5.84L102.08-5.84Q101.12-4.56 99.88-3.32L99.88-3.32L99.88-3.32Q98.64-2.08 97.04-1.12L97.04-1.12L97.04-1.12Q95.44-0.16 93.44 0.40L93.44 0.40L93.44 0.40Q91.44 0.96 89.04 0.96L89.04 0.96L89.04 0.96Q85.12 0.96 81.72-0.56L81.72-0.56L81.72-0.56Q78.32-2.08 75.80-4.88L75.80-4.88L75.80-4.88Q73.28-7.68 71.80-11.64L71.80-11.64L71.80-11.64Q70.32-15.60 70.32-20.56zM90.64-5.44L90.64-5.44L90.64-5.44Q93.68-5.44 96.40-6.88L96.40-6.88L96.40-6.88Q99.12-8.32 100.96-10.64L100.96-10.64L100.96-32.96L100.96-32.96Q98.80-34.48 96.20-35.40L96.20-35.40L96.20-35.40Q93.60-36.32 90.72-36.32L90.72-36.32L90.72-36.32Q87.84-36.32 85.44-35.20L85.44-35.20L85.44-35.20Q83.04-34.08 81.32-32.04L81.32-32.04L81.32-32.04Q79.60-30 78.64-27.12L78.64-27.12L78.64-27.12Q77.68-24.24 77.68-20.80L77.68-20.80L77.68-20.80Q77.68-17.44 78.64-14.60L78.64-14.60L78.64-14.60Q79.60-11.76 81.36-9.72L81.36-9.72L81.36-9.72Q83.12-7.68 85.48-6.56L85.48-6.56L85.48-6.56Q87.84-5.44 90.64-5.44" fill="#88c3cf" stroke="none" stroke-width="none" transform="translate(-157.64003944396973,19.171000584363938)" style="fill: rgb(96, 153, 165);"></path></g><g class="path" style="opacity: 1; transform-origin: -31.56px -1.629px; animation: 1s linear -0.15625s infinite normal forwards running fade-6839a8f9-8a0f-4a65-9871-cf163cdc5a58;"><path d="M129.68-41.60L129.68 0L122.48 0L122.48-41.60L129.68-41.60" fill="#88c3cf" stroke="none" stroke-width="none" transform="translate(-157.64003944396973,19.171000584363938)" style="fill: rgb(56, 115, 127);"></path></g><g class="path" style="opacity: 1; transform-origin: -31.56px -34.589px; animation: 1s linear -0.125s infinite normal forwards running fade-6839a8f9-8a0f-4a65-9871-cf163cdc5a58;"><path d="M126.08-48.72L126.08-48.72L126.08-48.72Q124-48.72 122.52-50.20L122.52-50.20L122.52-50.20Q121.04-51.68 121.04-53.76L121.04-53.76L121.04-53.76Q121.04-56.08 122.40-57.44L122.40-57.44L122.40-57.44Q123.76-58.80 126.08-58.80L126.08-58.80L126.08-58.80Q128.16-58.80 129.64-57.32L129.64-57.32L129.64-57.32Q131.12-55.84 131.12-53.76L131.12-53.76L131.12-53.76Q131.12-51.44 129.76-50.08L129.76-50.08L129.76-50.08Q128.40-48.72 126.08-48.72" fill="#88c3cf" stroke="none" stroke-width="none" transform="translate(-157.64003944396973,19.171000584363938)" style="fill: rgb(136, 195, 207);"></path></g><g class="path" style="opacity: 1; transform-origin: -4.92004px -9.949px; animation: 1s linear -0.09375s infinite normal forwards running fade-6839a8f9-8a0f-4a65-9871-cf163cdc5a58;"><path d="M149.28-59.20L149.28-13.76L149.28-13.76Q149.28-9.44 151.08-7.36L151.08-7.36L151.08-7.36Q152.88-5.28 156.08-5.28L156.08-5.28L156.08-5.28Q157.60-5.28 159.04-5.64L159.04-5.64L159.04-5.64Q160.48-6 161.60-6.48L161.60-6.48L163.36-0.64L163.36-0.64Q161.92 0 159.80 0.48L159.80 0.48L159.80 0.48Q157.68 0.96 155.12 0.96L155.12 0.96L155.12 0.96Q152.32 0.96 149.96 0.16L149.96 0.16L149.96 0.16Q147.60-0.64 145.84-2.32L145.84-2.32L145.84-2.32Q144.08-4 143.08-6.64L143.08-6.64L143.08-6.64Q142.08-9.28 142.08-13.04L142.08-13.04L142.08-59.20L149.28-59.20" fill="#88c3cf" stroke="none" stroke-width="none" transform="translate(-157.64003944396973,19.171000584363938)" style="fill: rgb(96, 153, 165);"></path></g><g class="path" style="opacity: 1; transform-origin: 30.12px -8.269px; animation: 1s linear -0.0625s infinite normal forwards running fade-6839a8f9-8a0f-4a65-9871-cf163cdc5a58;"><path d="M201.36-24.16L174.16-24.16L174.16-30.72L201.36-30.72L201.36-24.16" fill="#88c3cf" stroke="none" stroke-width="none" transform="translate(-157.64003944396973,19.171000584363938)" style="fill: rgb(56, 115, 127);"></path></g><g class="path" style="opacity: 1; transform-origin: 76.08px -1.629px; animation: 1s linear -0.03125s infinite normal forwards running fade-6839a8f9-8a0f-4a65-9871-cf163cdc5a58;"><path d="M251.84-17.84L222.72-17.84L222.72-17.84Q223.44-12 226.80-8.72L226.80-8.72L226.80-8.72Q230.16-5.44 235.68-5.44L235.68-5.44L235.68-5.44Q239.28-5.44 242.16-6.20L242.16-6.20L242.16-6.20Q245.04-6.96 247.68-8.16L247.68-8.16L249.36-2L249.36-2Q246.48-0.64 242.88 0.16L242.88 0.16L242.88 0.16Q239.28 0.96 234.80 0.96L234.80 0.96L234.80 0.96Q230.32 0.96 226.72-0.52L226.72-0.52L226.72-0.52Q223.12-2 220.60-4.76L220.60-4.76L220.60-4.76Q218.08-7.52 216.72-11.56L216.72-11.56L216.72-11.56Q215.36-15.60 215.36-20.80L215.36-20.80L215.36-20.80Q215.36-25.44 216.72-29.44L216.72-29.44L216.72-29.44Q218.08-33.44 220.56-36.36L220.56-36.36L220.56-36.36Q223.04-39.28 226.48-40.92L226.48-40.92L226.48-40.92Q229.92-42.56 234.16-42.56L234.16-42.56L234.16-42.56Q238.64-42.56 242-41.04L242-41.04L242-41.04Q245.36-39.52 247.60-36.88L247.60-36.88L247.60-36.88Q249.84-34.24 250.96-30.72L250.96-30.72L250.96-30.72Q252.08-27.20 252.08-23.28L252.08-23.28L252.08-23.28Q252.08-20.48 251.84-17.84L251.84-17.84zM234-36.32L234-36.32L234-36.32Q229.28-36.32 226.28-33.12L226.28-33.12L226.28-33.12Q223.28-29.92 222.64-23.68L222.64-23.68L245.44-23.68L245.44-23.68Q245.44-29.76 242.40-33.04L242.40-33.04L242.40-33.04Q239.36-36.32 234-36.32" fill="#88c3cf" stroke="none" stroke-width="none" transform="translate(-157.64003944396973,19.171000584363938)" style="fill: rgb(136, 195, 207);"></path></g><g class="path" style="opacity: 1; transform-origin: 134.44px -2.109px; animation: 1s linear 0s infinite normal forwards running fade-6839a8f9-8a0f-4a65-9871-cf163cdc5a58;"><path d="M268.64-41.60L268.64-34.64L268.64-34.64Q270.88-38 274.28-40.28L274.28-40.28L274.28-40.28Q277.68-42.56 282.16-42.56L282.16-42.56L282.16-42.56Q287.12-42.56 290.24-40.20L290.24-40.20L290.24-40.20Q293.36-37.84 294.72-33.76L294.72-33.76L294.72-33.76Q297.20-37.44 300.60-40L300.60-40L300.60-40Q304-42.56 309.04-42.56L309.04-42.56L309.04-42.56Q312.40-42.56 314.92-41.44L314.92-41.44L314.92-41.44Q317.44-40.32 319.12-38.28L319.12-38.28L319.12-38.28Q320.80-36.24 321.64-33.40L321.64-33.40L321.64-33.40Q322.48-30.56 322.48-27.12L322.48-27.12L322.48 0L315.28 0L315.28-26.56L315.28-26.56Q315.28-30.88 313.28-33.56L313.28-33.56L313.28-33.56Q311.28-36.24 307.76-36.24L307.76-36.24L307.76-36.24Q305.92-36.24 304.24-35.52L304.24-35.52L304.24-35.52Q302.56-34.80 301.04-33.56L301.04-33.56L301.04-33.56Q299.52-32.32 298.16-30.68L298.16-30.68L298.16-30.68Q296.80-29.04 295.68-27.28L295.68-27.28L295.68 0L288.48 0L288.48-26.56L288.48-26.56Q288.48-30.88 286.48-33.56L286.48-33.56L286.48-33.56Q284.48-36.24 280.96-36.24L280.96-36.24L280.96-36.24Q279.20-36.24 277.52-35.56L277.52-35.56L277.52-35.56Q275.84-34.88 274.28-33.68L274.28-33.68L274.28-33.68Q272.72-32.48 271.36-30.88L271.36-30.88L271.36-30.88Q270-29.28 268.88-27.52L268.88-27.52L268.88 0L261.68 0L261.68-41.60L268.64-41.60" fill="#88c3cf" stroke="none" stroke-width="none" transform="translate(-157.64003944396973,19.171000584363938)" style="fill: rgb(96, 153, 165);"></path></g></g>
</g>
</g>
<style id="fade-6839a8f9-8a0f-4a65-9871-cf163cdc5a58" data-anikit="">@keyframes fade-6839a8f9-8a0f-4a65-9871-cf163cdc5a58
{
  0% {
    animation-timing-function: cubic-bezier(0.2057,0.573,0.3723,0.9184);
    opacity: 1;
  }
  100% {
    opacity: 0;
  }
}</style></svg>